#!OML:ASF H:\Male1\Project 1\Capture day 1\Session 1\Male1.ASF
:FULLY-SPECIFIED
:DEGREES
185
root 7.87977 14.9601 1.69563 -21.1193 -73.0264 18.4816
lowerback 6.68089 0.0251068 -7.05709
upperback 7.48211 -0.422531 -2.12733
thorax 4.09029 -0.599669 1.73716
lowerneck -8.99289 3.52025 7.63904
upperneck 19.1996 3.72409 -2.09263
head 7.58553 2.04417 -1.62143
rclavicle 2.50469e-014 -4.6118e-014
rhumerus -32.1014 -1.71415 -85.8039
rradius 32.9068
rwrist -17.0803
rhand -16.1743 -0.201467
rfingers 7.12502
rthumb 10.032 -29.9424
lclavicle 2.50469e-014 -4.6118e-014
lhumerus -15.82 -16.2004 87.9916
lradius 48.6909
lwrist 19.9097
lhand -21.183 14.3729
lfingers 7.12502
lthumb 5.19762 44.2891
rfemur -29.4161 14.0345 12.8564
rtibia 29.4845
rfoot -29.1829 -28.454
rtoes -18.0096
lfemur 29.0973 -3.43937 -32.0634
ltibia -2.8625e-014
lfoot -12.0688 14.5322
ltoes -10.3771
186
root 7.54112 14.9175 1.75241 -20.2873 -72.7921 17.3937
lowerback 6.8521 -0.0889148 -6.68372
upperback 7.60736 -0.576153 -1.9715
thorax 4.13305 -0.668004 1.69637
lowerneck -8.98013 3.52116 7.57581
upperneck 19.2042 3.75578 -2.18375
head 7.58595 2.04704 -1.63818
rclavicle 9.05464e-014 -1.74931e-014
rhumerus -32.0864 -2.14203 -85.5821
rradius 32.2475
rwrist -16.57
rhand -16.1989 -0.154327
rfingers 7.12502
rthumb 10.0083 -29.8964
lclavicle 9.05464e-014 -1.74931e-014
lhumerus -15.8448 -16.1515 88.008
lradius 49.2744
lwrist 19.999
lhand -21.1851 14.1544
lfingers 7.12502
lthumb 5.19561 44.0707
rfemur -28.7604 12.7608 13.7116
rtibia 30.1881
rfoot -26.0949 -27.0494
rtoes -19.9493
lfemur 25.7384 -2.87564 -31.1602
ltibia 9.18631
lfoot -14.0031 12.8537
ltoes -12.3645
187
root 7.2015 14.8832 1.80922 -18.8281 -72.6935 15.6729
lowerback 7.04186 -0.192581 -6.04904
upperback 7.70485 -0.707174 -1.75402
thorax 4.12721 -0.711027 1.57486
lowerneck -8.91355 3.52088 7.52723
upperneck 19.2305 3.79295 -2.3089
head 7.58503 2.05056 -1.66887
rclavicle -3.71727e-014 -5.56597e-015
rhumerus -32.0657 -2.57136 -85.3347
rradius 31.5676
rwrist -16.0841
rhand -16.2161 -0.142929
rfingers 7.12502
rthumb 9.99172 -29.8858
lclavicle -3.71727e-014 -5.56597e-015
lhumerus -15.9798 -15.9568 88.0622
lradius 49.5693
lwrist 19.9291
lhand -21.0808 13.8978
lfingers 7.12502
lthumb 5.29635 43.8116
rfemur -28.0554 11.2687 14.8881
rtibia 31.1394
rfoot -23.0867 -25.5212
rtoes -20.8176
lfemur 22.7323 -2.27911 -29.8714
ltibia 17.481
lfoot -14.4264 11.1225
ltoes -14.3884
188
root 6.86296 14.8609 1.86611 -16.5183 -72.7503 13.11
lowerback 7.28025 -0.276189 -5.09658
upperback 7.7506 -0.80099 -1.45594
thorax 4.02884 -0.717943 1.36058
lowerneck -8.8179 3.51714 7.49636
upperneck 19.3089 3.82766 -2.45817
head 7.59682 2.05209 -1.71124
rclavicle 3.77691e-015 -4.77083e-015
rhumerus -32.0424 -2.99249 -85.0517
rradius 30.8605
rwrist -15.6434
rhand -16.23 -0.141691
rfingers 7.12502
rthumb 9.97822 -29.8852
lclavicle 3.77691e-015 -4.77083e-015
lhumerus -16.2274 -15.6104 88.1732
lradius 49.5631
lwrist 19.7234
lhand -20.9048 13.6374
lfingers 7.12502
lthumb 5.46623 43.5469
rfemur -27.3452 9.78685 16.3467
rtibia 32.1482
rfoot -20.3332 -24.122
rtoes -20.5984
lfemur 19.9656 -1.40694 -28.0702
ltibia 24.9453
lfoot -13.2552 9.18756
ltoes -16.4662
189
root 6.52613 14.8506 1.92408 -13.7081 -72.8595 10.0538
lowerback 7.56388 -0.346047 -3.97772
upperback 7.7688 -0.868344 -1.10358
thorax 3.87209 -0.704275 1.10908
lowerneck -8.72659 3.51135 7.4718
upperneck 19.4302 3.86212 -2.63129
head 7.6241 2.05182 -1.76264
rclavicle -2.41523e-014 1.39149e-014
rhumerus -31.9857 -3.37437 -84.7247
rradius 30.1493
rwrist -15.2474
rhand -16.2235 -0.143356
rfingers 7.12502
rthumb 9.98458 -29.8865
lclavicle -2.41523e-014 1.39149e-014
lhumerus -16.5432 -15.0815 88.343
lradius 49.2705
lwrist 19.4493
lhand -20.6491 13.5602
lfingers 7.12502
lthumb 5.7131 43.4631
rfemur -26.5518 8.24746 17.934
rtibia 33.0936
rfoot -18.0179 -22.7103
rtoes -19.7377
lfemur 17.0377 -0.573595 -26.0798
ltibia 32.2984
lfoot -11.0396 7.33318
ltoes -17.8872
190
root 6.19423 14.8505 1.98148 -10.4111 -72.9956 6.52854
lowerback 7.91335 -0.39647 -2.74423
upperback 7.7619 -0.901457 -0.698147
thorax 3.6515 -0.670316 0.847184
lowerneck -8.66946 3.50452 7.46627
upperneck 19.5805 3.89449 -2.82883
head 7.66793 2.04963 -1.82513
rclavicle -2.05245e-014 5.36719e-015
rhumerus -31.8908 -3.66657 -84.37
rradius 29.4956
rwrist -14.9268
rhand -16.1872 -0.1503
rfingers 7.12502
rthumb 10.0196 -29.8918
lclavicle -2.05245e-014 5.36719e-015
lhumerus -16.9036 -14.3603 88.5595
lradius 48.7568
lwrist 19.2341
lhand -20.3061 13.7759
lfingers 7.12502
lthumb 6.04427 43.6697
rfemur -25.6644 6.74924 19.6148
rtibia 33.8737
rfoot -16.3251 -21.319
rtoes -18.367
lfemur 13.8386 0.188881 -23.9693
ltibia 39.6007
lfoot -8.11259 5.67019
ltoes -18.1638
